<?xml version="1.0" encoding="UTF-8" standalone="no"?>
<svg
   width="2735716"
   height="2735716"
   viewBox="0 0 2735716 2735716"
   version="1.1"
   xml:space="preserve"
   style="clip-rule:evenodd;fill-rule:evenodd;stroke-linejoin:round;stroke-miterlimit:2"
   id="svg1"
   xmlns="http://www.w3.org/2000/svg"
   xmlns:svg="http://www.w3.org/2000/svg"><defs
   id="defs1" />
    <path
   d="m 1653.54,826.772 c 0,456.308 -370.46,826.768 -826.768,826.768 C 370.464,1653.54 0,1283.08 0,826.772 0,370.464 370.464,0 826.772,0 h 428.568 l -70.98,141.732 H 826.772 c -378.084,0 -685.04,306.956 -685.04,685.04 0,378.088 306.956,685.038 685.04,685.038 378.088,0 685.038,-306.95 685.038,-685.038 z M 1429.65,141.732 826.772,1347.49 363.241,420.425 c 8.901,-10.145 18.125,-19.99 27.66,-29.524 12.759,-12.76 26.074,-24.963 39.906,-36.57 15.273,-12.817 31.175,-24.908 47.66,-36.223 L 826.772,1014.72 1305.06,58.148 h 0.41 L 1334.59,0 h 318.95 V 755.906 H 1511.81 V 141.732 Z"
   style="fill:#cdd6f4;fill-opacity:1"
   id="path1" />
</svg>
