<?xml version="1.0" encoding="UTF-8" standalone="no"?>
<svg
   width="2735716"
   height="2735716"
   viewBox="0 0 2735716 2735716"
   version="1.1"
   xml:space="preserve"
   style="clip-rule:evenodd;fill-rule:evenodd;stroke-linejoin:round;stroke-miterlimit:2"
   id="svg1"
   sodipodi:docname="MT-logo-white.svg"
   inkscape:export-filename="MT-logo-catppuccin.svg"
   inkscape:export-xdpi="96"
   inkscape:export-ydpi="96"
   xmlns:inkscape="http://www.inkscape.org/namespaces/inkscape"
   xmlns:sodipodi="http://sodipodi.sourceforge.net/DTD/sodipodi-0.dtd"
   xmlns="http://www.w3.org/2000/svg"
   xmlns:svg="http://www.w3.org/2000/svg"><defs
   id="defs1" /><sodipodi:namedview
   id="namedview1"
   pagecolor="#505050"
   bordercolor="#ffffff"
   borderopacity="1"
   inkscape:showpageshadow="0"
   inkscape:pageopacity="0"
   inkscape:pagecheckerboard="1"
   inkscape:deskcolor="#505050"><inkscape:page
     x="0"
     y="0"
     width="2735716"
     height="2735716"
     id="page2"
     margin="0"
     bleed="0" /></sodipodi:namedview>
    <path
   d="m 1653.54,826.772 c 0,456.308 -370.46,826.768 -826.768,826.768 C 370.464,1653.54 0,1283.08 0,826.772 0,370.464 370.464,0 826.772,0 h 428.568 l -70.98,141.732 H 826.772 c -378.084,0 -685.04,306.956 -685.04,685.04 0,378.088 306.956,685.038 685.04,685.038 378.088,0 685.038,-306.95 685.038,-685.038 z M 1429.65,141.732 826.772,1347.49 363.241,420.425 c 8.901,-10.145 18.125,-19.99 27.66,-29.524 12.759,-12.76 26.074,-24.963 39.906,-36.57 15.273,-12.817 31.175,-24.908 47.66,-36.223 L 826.772,1014.72 1305.06,58.148 h 0.41 L 1334.59,0 h 318.95 V 755.906 H 1511.81 V 141.732 Z"
   style="fill:#ffffff"
   id="path1" />
<path
   style="fill:#cdd6f4;stroke-width:3.12563"
   d="M 795.47247,1651.3761 C 621.4561,1643.4747 460.72506,1585.0153 323.2155,1479.6117 187.18199,1375.3396 81.556155,1220.3585 34.060084,1055.3443 -32.978199,822.43518 5.3020041,573.80837 139.2256,372.30281 275.50887,167.24679 487.64866,37.056046 736.08553,6.0082836 767.30147,2.1071538 1251.8142,-2.3273301 1251.8142,1.2880972 c 0,1.0405349 -15.4779,32.8233758 -34.3955,70.6285348 l -34.3955,68.736658 H 986.45338 c -113.86612,0 -210.18852,1.37339 -228.9387,3.26427 -155.99859,15.73185 -304.27919,86.02667 -415.59173,197.018 -105.71089,105.40586 -174.19281,242.99428 -195.20011,392.18059 -7.00726,49.76301 -7.00726,137.46221 0,187.22522 47.96185,340.60773 337.03141,592.46283 680.00592,592.46283 157.53578,0 311.60134,-54.596 433.73734,-153.703 98.5643,-79.9799 178.5615,-196.1471 217.9503,-316.495 19.3828,-59.22175 27.0355,-101.85523 34.6823,-193.21663 l 1.7659,-21.098 h 68.515 68.5151 l -0.011,17.97237 c -0.018,30.08171 -6.2631,87.61528 -14.1929,130.75017 -55.5623,302.23739 -281.5773,553.59499 -575.7941,640.35689 -83.86325,24.7305 -185.365,37.6856 -266.42453,34.0051 z"
   id="path2" /><path
   style="fill:#cdd6f4;stroke-width:3.12563"
   d="M 596.20868,882.98723 C 470.28765,631.13818 367.26136,423.17182 367.26136,420.83982 c 0,-7.80094 100.70162,-98.90008 109.32486,-98.90008 0.91161,0 79.70992,156.12515 175.10734,346.94478 95.39743,190.81962 174.16021,346.94478 175.02842,346.94478 0.8682,0 115.85677,-228.5616 255.53012,-507.91466 L 1336.2037,0 h 157.8455 157.8455 v 376.63824 376.63825 h -68.7638 -68.7639 v -306.3116 -306.3116 h -42.9838 -42.984 L 1128.3519,740.77397 C 963.32589,1070.8404 827.59615,1340.8947 826.73029,1340.8947 c -0.86586,0 -104.6006,-206.0584 -230.52161,-457.90747 z"
   id="path3" /></svg>
