<?xml version="1.0" encoding="UTF-8" standalone="no"?>
<!DOCTYPE svg PUBLIC "-//W3C//DTD SVG 1.1//EN" "http://www.w3.org/Graphics/SVG/1.1/DTD/svg11.dtd">
<svg width="100%" height="100%" viewBox="0 0 1654 1654" version="1.1" xmlns="http://www.w3.org/2000/svg" xmlns:xlink="http://www.w3.org/1999/xlink" xml:space="preserve" xmlns:serif="http://www.serif.com/" style="fill-rule:evenodd;clip-rule:evenodd;stroke-linejoin:round;stroke-miterlimit:2;">
    <path d="M1653.54,826.772C1653.54,1283.08 1283.08,1653.54 826.772,1653.54C370.464,1653.54 0,1283.08 0,826.772C0,370.464 370.464,0 826.772,0L1255.34,0L1184.36,141.732L826.772,141.732C448.688,141.732 141.732,448.688 141.732,826.772C141.732,1204.86 448.688,1511.81 826.772,1511.81C1204.86,1511.81 1511.81,1204.86 1511.81,826.772L1653.54,826.772ZM1429.65,141.732L826.772,1347.49L363.241,420.425C372.142,410.28 381.366,400.435 390.901,390.901C403.66,378.141 416.975,365.938 430.807,354.331C446.08,341.514 461.982,329.423 478.467,318.108L826.772,1014.72L1305.06,58.148L1305.47,58.148L1334.59,0L1653.54,0L1653.54,755.906L1511.81,755.906L1511.81,141.732L1429.65,141.732Z" style="fill:white;"/>
</svg>
